<svg width="24" height="24" viewBox="0 0 24 24" fill="none" xmlns="http://www.w3.org/2000/svg">
<path fill-rule="evenodd" clip-rule="evenodd" d="M15.6851 3.83144C16.5599 2.81746 17.1497 1.40518 16.9883 0C15.7275 0.048 14.2022 0.805376 13.2982 1.81816C12.4864 2.71695 11.7778 4.15308 11.9683 5.53066C13.3747 5.63505 14.8102 4.84662 15.6851 3.83144ZM18.8388 12.75C18.874 16.3824 22.1636 17.5906 22.2 17.6062C22.1733 17.6914 21.6746 19.3279 20.4672 21.0199C19.4224 22.4815 18.3388 23.9372 16.6315 23.9684C14.9546 23.9984 14.4146 23.0156 12.4961 23.0156C10.5789 23.0156 9.97948 23.937 8.39231 23.9982C6.74446 24.057 5.48855 22.4169 4.4365 20.9602C2.28387 17.9806 0.639666 12.5401 2.84812 8.86816C3.94506 7.04539 5.90476 5.88935 8.03313 5.86055C9.65064 5.83055 11.1784 6.90352 12.1673 6.90352C13.1563 6.90352 15.0128 5.61352 16.964 5.80312C17.7807 5.83552 20.074 6.11862 21.5459 8.18379C21.427 8.25459 18.8096 9.71405 18.8388 12.75Z" fill="black"/>
</svg>
