<svg width="54" height="55" viewBox="0 0 54 55" fill="none" xmlns="http://www.w3.org/2000/svg">
<path d="M21.5659 54.0304C21.0901 54.0304 20.643 53.7975 20.3771 53.4008L14.5926 44.8649L8.19999 47.0945C7.84062 47.221 7.44099 47.198 7.09455 47.0298C1.2468 44.1691 -2.34982 33.8206 1.7758 24.7615C4.8808 17.9434 10.2039 13.756 18.0526 11.9591C19.4513 11.6371 20.8989 11.8728 22.2027 12.5269C22.7001 8.04908 24.6924 4.39927 27.8607 2.20421C31.1626 -0.0842933 35.4895 -0.610418 40.0406 0.717832C44.9094 2.13808 48.5794 6.49227 49.1759 11.5508C49.8918 17.6113 45.2976 24.9153 40.239 25.7605C37.6501 26.1946 34.995 25.3825 32.4247 24.5976C31.6298 24.3546 30.8392 24.1131 30.0615 23.9148C29.4132 23.7495 28.8037 23.5151 28.1812 23.2391C31.5162 31.7592 30.9355 39.4268 26.4261 46.6172C25.657 47.842 24.9742 49.1616 24.185 50.6882C23.7724 51.486 23.3311 52.3413 22.8309 53.2743C22.5937 53.7156 22.1423 54.0016 21.6392 54.029C21.6147 54.0304 21.5889 54.0304 21.5659 54.0304ZM15.1618 41.7081C15.629 41.7081 16.0789 41.9381 16.3506 42.3392L21.4106 49.8013C21.4868 49.6546 21.5601 49.5095 21.632 49.3686C22.4514 47.7816 23.1601 46.4145 23.9909 45.0891C28.3092 38.2021 28.5363 30.7688 24.6852 22.3594C24.5516 22.0676 24.5242 21.7556 24.5861 21.4653C24.3618 21.2597 24.2037 20.9851 24.1447 20.6775L24.1088 20.472C24.0499 20.1442 23.9377 19.5117 23.7868 18.885C23.1486 16.2141 20.7695 14.285 18.6923 14.7593C11.7765 16.3435 7.1003 20.0033 4.39205 25.9517C1.10162 33.1737 3.5698 41.5543 7.85499 44.1706L14.6889 41.7872C14.8441 41.7355 15.0037 41.7081 15.1618 41.7081ZM26.8357 19.4125C27.2555 19.6095 27.6479 19.8006 28.0217 19.9832C29.0883 20.5036 29.9307 20.9147 30.7716 21.1303C31.591 21.3388 32.4262 21.5932 33.2642 21.8491C35.5125 22.5362 37.8355 23.2449 39.7632 22.9258C42.9861 22.3867 46.8889 16.7258 46.3196 11.8886C45.8567 7.95996 43.0091 4.58039 39.2327 3.47783C35.5283 2.39539 32.0697 2.78352 29.4966 4.56746C26.8932 6.37152 25.2991 9.52252 25.0044 13.4411C24.9727 13.8666 24.8477 14.2303 24.7269 14.5365C25.5894 15.5543 26.2478 16.8106 26.5842 18.218C26.6819 18.6391 26.7696 19.0632 26.8357 19.4125Z" fill="#137FEC"/>
<path d="M24.7643 52.2005C24.1692 52.2005 23.5784 52.1616 22.9875 52.0826C22.2012 51.9762 21.6507 51.2517 21.7585 50.4654C21.8634 49.6762 22.5836 49.1314 23.3757 49.2335C28.8669 49.9752 34.8052 46.2665 37.4732 40.4086C38.0842 39.066 38.4637 37.5451 38.905 35.7813C38.9927 35.4392 39.0789 35.0856 39.1724 34.7248L28.8727 35.2394C28.0935 35.2955 27.405 34.6687 27.3662 33.8752C27.3259 33.0817 27.9354 32.4075 28.7289 32.3673L41.0009 31.7549C41.4565 31.7218 41.9094 31.9317 42.1983 32.2954C42.4858 32.6591 42.5835 33.1392 42.4542 33.5834C42.1595 34.6198 41.9209 35.5786 41.6952 36.4771C41.2194 38.3775 40.8097 40.0205 40.0909 41.5989C37.1886 47.9713 30.947 52.2005 24.7643 52.2005Z" fill="#137FEC"/>
<path d="M2.71595 35.6405C1.94258 35.6405 1.30433 35.0252 1.27989 34.2475C1.25402 33.454 1.87789 32.7913 2.67139 32.7655L27.9513 31.9648C28.7548 31.9173 29.4089 32.5628 29.4333 33.3548C29.4592 34.1498 28.8353 34.8125 28.0433 34.8369L2.76195 35.6405C2.74758 35.6405 2.73177 35.6405 2.71595 35.6405Z" fill="#137FEC"/>
<path d="M23.6761 26.9321C16.9486 26.9321 11.3352 24.9253 6.59429 20.8443C5.99342 20.3268 5.92441 19.4183 6.44335 18.8174C6.96085 18.2151 7.86791 18.1461 8.47023 18.6665C13.4167 22.9243 19.4901 24.6321 27.0485 23.886C27.7385 23.8185 28.5119 23.4447 29.3284 23.048C29.7754 22.8309 30.2239 22.6153 30.6753 22.4341C31.4185 22.138 32.2494 22.4974 32.544 23.2334C32.8402 23.9708 32.4822 24.8075 31.7448 25.1021C31.3552 25.2588 30.9685 25.4471 30.5804 25.634C29.6202 26.0998 28.5305 26.6273 27.3288 26.7452C26.0767 26.8703 24.8577 26.9321 23.6761 26.9321Z" fill="#137FEC"/>
<path d="M17.0047 52.3959C13.3419 52.3959 10.0026 50.681 6.86454 47.2051C6.33267 46.6158 6.37867 45.7058 6.96804 45.1754C7.55742 44.6421 8.46592 44.6895 8.99779 45.2789C12.2681 48.9014 15.4263 50.1276 19.2486 49.255C20.0191 49.0782 20.7939 49.5641 20.9707 50.336C21.1461 51.1108 20.6617 51.8828 19.8883 52.0596C18.905 52.2838 17.9448 52.3959 17.0047 52.3959Z" fill="#137FEC"/>
<path d="M42.8437 15.9769C42.1451 15.9769 41.5298 15.4637 41.4249 14.7493C40.7522 10.191 39.1795 8.63702 34.108 7.51577C33.3332 7.34471 32.843 6.57708 33.0141 5.80227C33.1852 5.02746 33.9485 4.53583 34.7276 4.70833C40.9261 6.07827 43.4216 8.59533 44.2683 14.3295C44.3847 15.1144 43.8413 15.8461 43.0565 15.9611C42.9846 15.9711 42.9127 15.9769 42.8437 15.9769Z" fill="#137FEC"/>
<path d="M48.5463 33.8263C48.1194 33.8263 47.714 33.6366 47.4409 33.3088L40.9376 25.4917C40.4287 24.8822 40.5121 23.9751 41.1231 23.4677C41.734 22.9588 42.6382 23.0422 43.1471 23.6531L48.5247 30.119L50.0772 28.1813L44.6047 22.3436C44.0613 21.7643 44.0915 20.8543 44.6708 20.311C45.2501 19.7705 46.1601 19.7978 46.702 20.3771L53.0256 27.1233C53.5157 27.6451 53.5459 28.4472 53.0974 29.0078L49.6661 33.2887C49.3959 33.6251 48.9891 33.8235 48.5578 33.8278C48.5578 33.8278 48.5506 33.8263 48.5463 33.8263Z" fill="#137FEC"/>
<path d="M33.615 46.876C33.326 46.876 33.0314 46.7883 32.7784 46.6057C27.9829 43.1658 22.7805 42.5706 16.8652 44.7786C16.1206 45.059 15.2926 44.6809 15.0152 43.9363C14.7377 43.1916 15.1144 42.3637 15.8575 42.0862C22.6425 39.5533 28.9014 40.2865 34.4545 44.2712C35.0999 44.7341 35.2465 45.6325 34.7837 46.278C34.5034 46.669 34.062 46.876 33.615 46.876Z" fill="#137FEC"/>
<path d="M13.1522 35.2408C13.0904 35.2408 13.0271 35.2365 12.9653 35.2279C12.1776 35.1273 11.6227 34.4056 11.7247 33.6179L12.9294 24.3863C13.0329 23.5985 13.7531 23.0494 14.5422 23.1471C15.3286 23.2506 15.8849 23.9723 15.7814 24.76L14.5767 33.9888C14.4819 34.7118 13.8623 35.2408 13.1522 35.2408Z" fill="#137FEC"/>
<path d="M14.3539 24.8046C14.0362 24.8046 13.7171 24.6996 13.4497 24.484C12.833 23.9838 12.7382 23.0781 13.237 22.4615L20.0579 14.0334C20.5567 13.4167 21.4624 13.319 22.079 13.8206C22.6972 14.3195 22.792 15.2251 22.2918 15.8418L15.4709 24.2713C15.1877 24.6235 14.7722 24.8046 14.3539 24.8046Z" fill="#137FEC"/>
<path d="M15.1546 44.0685C14.5106 44.0685 13.9241 43.633 13.7617 42.9789L11.7549 34.9519C11.5623 34.1828 12.0309 33.4023 12.8014 33.2082C13.5662 33.0141 14.3525 33.4842 14.5437 34.2561L16.549 42.2831C16.7431 43.0522 16.2744 43.8328 15.5025 44.0268C15.3875 44.0556 15.2696 44.0685 15.1546 44.0685Z" fill="#137FEC"/>
<path d="M39.2328 34.4373C38.537 34.4373 37.9261 33.9313 37.8154 33.2226L36.6108 25.5966C36.4871 24.8132 37.0204 24.0772 37.8068 23.9521C38.5888 23.8357 39.3262 24.3633 39.4498 25.1481L40.6544 32.7755C40.7781 33.559 40.2433 34.295 39.4584 34.4186C39.3808 34.4315 39.3061 34.4373 39.2328 34.4373Z" fill="#137FEC"/>
</svg>
